<svg xmlns="http://www.w3.org/2000/svg" width="10" height="11" viewBox="0 0 10 11" fill="none">
  <path d="M9.44992 1.05008C9.08304 0.683192 8.64157 0.5 8.12503 0.5H1.87497C1.35843 0.5 0.916963 0.683192 0.550078 1.05008C0.183192 1.41696 0 1.85843 0 2.37497V8.62503C0 9.14157 0.183192 9.58304 0.550078 9.94992C0.916963 10.3168 1.35843 10.5 1.87497 10.5H3.3335C3.4286 10.5 3.50018 10.4965 3.54823 10.49C3.60413 10.4788 3.65459 10.449 3.69138 10.4054C3.73893 10.3553 3.76295 10.2828 3.76295 10.1877L3.75945 9.74471C3.75745 9.46241 3.75644 9.23918 3.75644 9.074L3.60629 9.10003C3.51119 9.11755 3.39106 9.12506 3.24541 9.12305C3.09359 9.12025 2.94226 9.10502 2.79293 9.07751C2.63397 9.04816 2.48432 8.98123 2.35647 8.8823C2.22258 8.78101 2.12272 8.64134 2.07017 8.48188L2.00511 8.33172C1.95026 8.21327 1.88136 8.10186 1.79989 7.99987C1.70679 7.87825 1.61219 7.79616 1.51659 7.75261L1.47155 7.72008C1.44013 7.69758 1.41156 7.67137 1.38646 7.642C1.36248 7.61474 1.34274 7.58403 1.32789 7.5509C1.31488 7.52037 1.32589 7.49535 1.36043 7.47582C1.39547 7.4558 1.45803 7.44629 1.54963 7.44629L1.67976 7.46631C1.76635 7.48333 1.87397 7.53539 2.0016 7.62198C2.13077 7.71004 2.23866 7.8258 2.31743 7.96083C2.41754 8.13852 2.53766 8.27416 2.67881 8.36776C2.81996 8.46086 2.96211 8.50791 3.10526 8.50791C3.24841 8.50791 3.37204 8.4969 3.47665 8.47537C3.57781 8.45446 3.67611 8.42152 3.76946 8.37727C3.8085 8.08697 3.91461 7.86273 4.08829 7.70657C3.86324 7.6845 3.6402 7.64535 3.42109 7.58944C3.20726 7.5307 3.00162 7.44545 2.80895 7.33568C2.60736 7.22593 2.4293 7.07763 2.2849 6.89922C2.14625 6.72554 2.03213 6.4978 1.94304 6.216C1.85445 5.93371 1.8099 5.60786 1.8099 5.23898C1.8099 4.71392 1.98108 4.26696 2.32394 3.89757C2.16377 3.50315 2.17879 3.06019 2.36949 2.57017C2.49562 2.53063 2.68232 2.56016 2.92958 2.65777C3.17684 2.75537 3.35803 2.83896 3.47315 2.90803C3.58827 2.9781 3.68036 3.03666 3.74994 3.08421C4.15685 2.97097 4.57737 2.91405 4.99975 2.91504C5.4297 2.91504 5.84614 2.9716 6.25006 3.08421L6.49732 2.92805C6.68751 2.81386 6.88812 2.71799 7.09645 2.64175C7.32669 2.55466 7.50188 2.53113 7.62401 2.57017C7.81921 3.06069 7.83623 3.50315 7.67556 3.89807C8.01842 4.26696 8.1901 4.71392 8.1901 5.23948C8.1901 5.60836 8.14555 5.93521 8.05646 6.219C7.96787 6.5033 7.85275 6.73104 7.7116 6.90272C7.56465 7.07885 7.38585 7.22573 7.18454 7.33568C6.97432 7.4528 6.77011 7.53739 6.5724 7.58944C6.35331 7.64553 6.13026 7.68485 5.9052 7.70707C6.13044 7.90227 6.24356 8.2101 6.24356 8.63104V10.1877C6.24356 10.2612 6.25407 10.3208 6.27609 10.3664C6.28621 10.3883 6.30065 10.408 6.31853 10.4242C6.33642 10.4405 6.35739 10.453 6.3802 10.461C6.42825 10.478 6.47029 10.489 6.50733 10.493C6.54437 10.498 6.59743 10.4995 6.6665 10.4995H8.12503C8.64157 10.4995 9.08304 10.3163 9.44992 9.94942C9.81631 9.58304 10 9.14107 10 8.62453V2.37497C10 1.85843 9.81681 1.41696 9.44992 1.05008Z" fill="#334155"/>
</svg>