<svg xmlns="http://www.w3.org/2000/svg" width="10" height="11" viewBox="0 0 10 11" fill="none">
  <path d="M8.88889 0.5C9.18357 0.5 9.46619 0.617063 9.67456 0.825437C9.88294 1.03381 10 1.31643 10 1.61111V9.38889C10 9.68357 9.88294 9.96619 9.67456 10.1746C9.46619 10.3829 9.18357 10.5 8.88889 10.5H1.11111C0.816426 10.5 0.533811 10.3829 0.325437 10.1746C0.117063 9.96619 0 9.68357 0 9.38889V1.61111C0 1.31643 0.117063 1.03381 0.325437 0.825437C0.533811 0.617063 0.816426 0.5 1.11111 0.5H8.88889ZM8.61111 9.11111V6.16667C8.61111 5.68633 8.4203 5.22567 8.08065 4.88602C7.741 4.54637 7.28034 4.35556 6.8 4.35556C6.32778 4.35556 5.77778 4.64444 5.51111 5.07778V4.46111H3.96111V9.11111H5.51111V6.37222C5.51111 5.94444 5.85556 5.59444 6.28333 5.59444C6.48961 5.59444 6.68744 5.67639 6.83331 5.82225C6.97917 5.96811 7.06111 6.16594 7.06111 6.37222V9.11111H8.61111ZM2.15556 3.58889C2.40309 3.58889 2.64049 3.49056 2.81552 3.31552C2.99056 3.14049 3.08889 2.90309 3.08889 2.65556C3.08889 2.13889 2.67222 1.71667 2.15556 1.71667C1.90655 1.71667 1.66774 1.81559 1.49166 1.99166C1.31559 2.16774 1.21667 2.40655 1.21667 2.65556C1.21667 3.17222 1.63889 3.58889 2.15556 3.58889ZM2.92778 9.11111V4.46111H1.38889V9.11111H2.92778Z" fill="#334155"/>
</svg>